# Exported from Wings 3D 2.2.3
mtllib door.mtl
o door
#68 vertices, 132 faces
v -0.70000000 3.70000000 -1.40000000
v -0.70000000 3.70000000 -1.60000000
v -0.70000000 3.80000000 -1.30000000
v -0.70000000 3.80000000 -1.40000000
v -0.70000000 3.80000000 -1.60000000
v -0.70000000 3.80000000 -1.70000000
v -0.70000000 4.00000000 -1.30000000
v -0.70000000 4.00000000 -1.40000000
v -0.70000000 4.00000000 -1.60000000
v -0.70000000 4.00000000 -1.70000000
v -0.70000000 4.10000000 -1.40000000
v -0.70000000 4.10000000 -1.60000000
v -0.30000000 0.0000000e+0 2.00000000
v -0.30000000 0.0000000e+0 -2.00000000
v -0.30000000 3.80000000 -1.40000000
v -0.30000000 3.80000000 -1.60000000
v -0.30000000 4.00000000 -1.40000000
v -0.30000000 4.00000000 -1.60000000
v -0.30000000 8.00000000 2.00000000
v -0.30000000 8.00000000 -2.00000000
v 0.50000000 3.70000000 -1.40000000
v 0.50000000 3.70000000 -1.60000000
v 0.50000000 3.80000000 -1.30000000
v 0.50000000 3.80000000 -1.40000000
v 0.50000000 3.80000000 -1.60000000
v 0.50000000 3.80000000 -1.70000000
v 0.50000000 4.00000000 -1.30000000
v 0.50000000 4.00000000 -1.40000000
v 0.50000000 4.00000000 -1.60000000
v 0.50000000 4.00000000 -1.70000000
v 0.50000000 4.10000000 -1.40000000
v 0.50000000 4.10000000 -1.60000000
v -0.50000000 3.70000000 -1.40000000
v -0.50000000 3.70000000 -1.60000000
v -0.50000000 3.80000000 -1.30000000
v -0.50000000 3.80000000 -1.40000000
v -0.50000000 3.80000000 -1.60000000
v -0.50000000 3.80000000 -1.70000000
v -0.50000000 4.00000000 -1.30000000
v -0.50000000 4.00000000 -1.40000000
v -0.50000000 4.00000000 -1.60000000
v -0.50000000 4.00000000 -1.70000000
v -0.50000000 4.10000000 -1.40000000
v -0.50000000 4.10000000 -1.60000000
v 0.30000000 0.0000000e+0 2.00000000
v 0.30000000 0.0000000e+0 -2.00000000
v 0.30000000 3.80000000 -1.40000000
v 0.30000000 3.80000000 -1.60000000
v 0.30000000 4.00000000 -1.40000000
v 0.30000000 4.00000000 -1.60000000
v 0.30000000 8.00000000 2.00000000
v 0.30000000 8.00000000 -2.00000000
v 0.70000000 3.70000000 -1.40000000
v 0.70000000 3.70000000 -1.60000000
v 0.70000000 3.80000000 -1.30000000
v 0.70000000 3.80000000 -1.40000000
v 0.70000000 3.80000000 -1.60000000
v 0.70000000 3.80000000 -1.70000000
v 0.70000000 4.00000000 -1.30000000
v 0.70000000 4.00000000 -1.40000000
v 0.70000000 4.00000000 -1.60000000
v 0.70000000 4.00000000 -1.70000000
v 0.70000000 4.10000000 -1.40000000
v 0.70000000 4.10000000 -1.60000000
v -0.10000000 3.80000000 -2.00000000
v -0.10000000 4.00000000 -2.00000000
v 0.10000000 3.80000000 -2.00000000
v 0.10000000 4.00000000 -2.00000000
vt 0.96679700 0.50000000
vt 0.97851600 0.50000000
vn 0.0000000e+0 0.0000000e+0 -1.00000000
vn 0.0000000e+0 0.0000000e+0 -1.00000000
vn 0.0000000e+0 0.0000000e+0 -1.00000000
vn 0.0000000e+0 0.0000000e+0 -1.00000000
vn -1.00000000 0.0000000e+0 0.0000000e+0
vn 0.0000000e+0 0.0000000e+0 1.00000000
vn 0.0000000e+0 -1.00000000 0.0000000e+0
vn -1.00000000 0.0000000e+0 0.0000000e+0
vn -1.00000000 0.0000000e+0 0.0000000e+0
vn 0.0000000e+0 0.0000000e+0 -1.00000000
vn 0.0000000e+0 -1.00000000 0.0000000e+0
vn 0.0000000e+0 -1.00000000 0.0000000e+0
vn -1.00000000 0.0000000e+0 0.0000000e+0
vn 0.0000000e+0 0.0000000e+0 1.00000000
vn 0.0000000e+0 -1.00000000 0.0000000e+0
vn -1.00000000 0.0000000e+0 0.0000000e+0
vn -1.00000000 0.0000000e+0 0.0000000e+0
vn -1.00000000 0.0000000e+0 0.0000000e+0
vn -1.00000000 0.0000000e+0 0.0000000e+0
vn 0.0000000e+0 0.0000000e+0 1.00000000
vn 0.0000000e+0 0.0000000e+0 1.00000000
vn 0.0000000e+0 -1.00000000 0.0000000e+0
vn 0.0000000e+0 -1.00000000 0.0000000e+0
vn -1.00000000 -9.2518585e-16 0.0000000e+0
vn -1.00000000 -9.2518585e-16 0.0000000e+0
vn -1.00000000 -9.2518585e-16 0.0000000e+0
vn 0.0000000e+0 0.0000000e+0 -1.00000000
vn 0.0000000e+0 0.0000000e+0 -1.00000000
vn 0.0000000e+0 -1.00000000 0.0000000e+0
vn -1.00000000 -6.9388939e-16 0.0000000e+0
vn -1.00000000 -6.9388939e-16 0.0000000e+0
vn -1.00000000 -6.9388939e-16 0.0000000e+0
vn -1.00000000 -6.9388939e-16 0.0000000e+0
vn 0.0000000e+0 0.0000000e+0 -1.00000000
vn 0.0000000e+0 -1.00000000 0.0000000e+0
vn 0.0000000e+0 -1.00000000 0.0000000e+0
vn -1.00000000 -6.9388939e-16 0.0000000e+0
vn -1.00000000 -6.9388939e-16 0.0000000e+0
vn -1.00000000 -6.9388939e-16 0.0000000e+0
vn -1.00000000 -6.9388939e-16 0.0000000e+0
vn 0.0000000e+0 0.0000000e+0 1.00000000
vn 0.0000000e+0 0.0000000e+0 1.00000000
vn 0.0000000e+0 1.00000000 0.0000000e+0
vn -1.00000000 0.0000000e+0 0.0000000e+0
vn -1.00000000 0.0000000e+0 0.0000000e+0
vn -1.00000000 0.0000000e+0 0.0000000e+0
vn 0.0000000e+0 0.0000000e+0 1.00000000
vn 0.0000000e+0 1.00000000 0.0000000e+0
vn 0.0000000e+0 1.00000000 0.0000000e+0
vn -1.00000000 0.0000000e+0 0.0000000e+0
vn -1.00000000 0.0000000e+0 0.0000000e+0
vn -1.00000000 0.0000000e+0 0.0000000e+0
vn -1.00000000 0.0000000e+0 0.0000000e+0
vn 0.0000000e+0 0.0000000e+0 -1.00000000
vn 0.0000000e+0 1.00000000 0.0000000e+0
vn -1.00000000 0.0000000e+0 0.0000000e+0
vn 0.0000000e+0 0.0000000e+0 -1.00000000
vn 0.0000000e+0 0.0000000e+0 -1.00000000
vn 0.0000000e+0 1.00000000 0.0000000e+0
vn 0.0000000e+0 1.00000000 0.0000000e+0
vn -1.00000000 0.0000000e+0 0.0000000e+0
vn -1.00000000 0.0000000e+0 0.0000000e+0
vn 0.0000000e+0 0.0000000e+0 1.00000000
vn 0.0000000e+0 0.0000000e+0 1.00000000
vn 0.0000000e+0 1.00000000 0.0000000e+0
vn -1.00000000 0.0000000e+0 0.0000000e+0
vn 0.0000000e+0 0.0000000e+0 -1.00000000
vn 0.0000000e+0 0.0000000e+0 -1.00000000
vn 0.0000000e+0 1.00000000 0.0000000e+0
vn 0.0000000e+0 1.00000000 0.0000000e+0
vn -1.00000000 0.0000000e+0 0.0000000e+0
vn -1.00000000 0.0000000e+0 0.0000000e+0
vn -1.00000000 0.0000000e+0 0.0000000e+0
vn 0.0000000e+0 0.0000000e+0 1.00000000
vn 0.0000000e+0 -1.00000000 0.0000000e+0
vn -1.00000000 0.0000000e+0 0.0000000e+0
vn -1.00000000 0.0000000e+0 0.0000000e+0
vn -1.00000000 0.0000000e+0 0.0000000e+0
vn -1.00000000 0.0000000e+0 0.0000000e+0
vn 0.0000000e+0 0.0000000e+0 -1.00000000
vn 0.0000000e+0 0.0000000e+0 -1.00000000
vn 0.0000000e+0 0.0000000e+0 -1.00000000
vn 0.0000000e+0 -1.00000000 0.0000000e+0
vn 0.0000000e+0 -1.00000000 0.0000000e+0
vn -1.00000000 0.0000000e+0 0.0000000e+0
vn -1.00000000 0.0000000e+0 0.0000000e+0
vn -1.00000000 0.0000000e+0 0.0000000e+0
vn 0.0000000e+0 0.0000000e+0 1.00000000
vn 0.0000000e+0 0.0000000e+0 1.00000000
vn 0.0000000e+0 -1.00000000 0.0000000e+0
vn 0.0000000e+0 -1.00000000 0.0000000e+0
vn -1.00000000 0.0000000e+0 0.0000000e+0
vn -1.00000000 0.0000000e+0 0.0000000e+0
vn 0.0000000e+0 0.0000000e+0 -1.00000000
vn 0.0000000e+0 0.0000000e+0 -1.00000000
vn 0.0000000e+0 -1.00000000 0.0000000e+0
vn -1.00000000 -4.6259293e-17 0.0000000e+0
vn -1.00000000 -4.6259293e-17 0.0000000e+0
vn -1.00000000 -4.6259293e-17 0.0000000e+0
vn 0.0000000e+0 0.0000000e+0 1.00000000
vn 0.0000000e+0 1.00000000 0.0000000e+0
vn 0.0000000e+0 1.00000000 0.0000000e+0
vn -1.00000000 -2.7755576e-17 0.0000000e+0
vn -1.00000000 -2.7755576e-17 0.0000000e+0
vn -1.00000000 -2.7755576e-17 0.0000000e+0
vn -1.00000000 -2.7755576e-17 0.0000000e+0
vn 0.0000000e+0 0.0000000e+0 -1.00000000
vn 0.0000000e+0 1.00000000 0.0000000e+0
vn -1.00000000 -3.7007434e-17 0.0000000e+0
vn -1.00000000 -3.7007434e-17 0.0000000e+0
vn -1.00000000 -3.7007434e-17 0.0000000e+0
vn 0.0000000e+0 0.0000000e+0 1.00000000
vn 0.0000000e+0 0.0000000e+0 1.00000000
vn 0.0000000e+0 1.00000000 0.0000000e+0
vn -1.00000000 1.3877788e-17 0.0000000e+0
vn -1.00000000 1.3877788e-17 0.0000000e+0
vn 0.0000000e+0 0.0000000e+0 -1.00000000
vn 0.0000000e+0 0.0000000e+0 -1.00000000
vn 0.0000000e+0 0.0000000e+0 -1.00000000
vn 0.0000000e+0 0.0000000e+0 -1.00000000
vn 0.0000000e+0 1.00000000 0.0000000e+0
vn 0.0000000e+0 1.00000000 0.0000000e+0
vn -1.00000000 0.0000000e+0 0.0000000e+0
vn 0.0000000e+0 0.0000000e+0 1.00000000
vn 0.0000000e+0 -1.00000000 0.0000000e+0
vn -1.00000000 0.0000000e+0 0.0000000e+0
vn -1.00000000 0.0000000e+0 0.0000000e+0
vn 0.0000000e+0 0.0000000e+0 -1.00000000
vn 0.0000000e+0 -1.00000000 0.0000000e+0
vn 0.0000000e+0 -1.00000000 0.0000000e+0
vn -1.00000000 0.0000000e+0 0.0000000e+0
vn 0.0000000e+0 0.0000000e+0 1.00000000
vn 0.0000000e+0 -1.00000000 0.0000000e+0
vn -1.00000000 0.0000000e+0 0.0000000e+0
vn -1.00000000 0.0000000e+0 0.0000000e+0
vn -1.00000000 0.0000000e+0 0.0000000e+0
vn -1.00000000 0.0000000e+0 0.0000000e+0
vn 0.0000000e+0 0.0000000e+0 1.00000000
vn 0.0000000e+0 0.0000000e+0 1.00000000
vn 0.0000000e+0 0.0000000e+0 1.00000000
vn 0.0000000e+0 0.0000000e+0 1.00000000
vn 0.0000000e+0 -1.00000000 0.0000000e+0
vn 0.0000000e+0 -1.00000000 0.0000000e+0
vn 0.0000000e+0 -1.00000000 0.0000000e+0
vn 0.0000000e+0 -1.00000000 0.0000000e+0
vn -1.00000000 0.0000000e+0 0.0000000e+0
vn -1.00000000 0.0000000e+0 0.0000000e+0
vn 0.0000000e+0 0.0000000e+0 -1.00000000
vn 0.0000000e+0 0.0000000e+0 -1.00000000
vn 0.0000000e+0 0.0000000e+0 -1.00000000
vn 0.0000000e+0 0.0000000e+0 -1.00000000
vn 0.0000000e+0 -1.00000000 0.0000000e+0
vn 0.0000000e+0 -1.00000000 0.0000000e+0
vn -1.00000000 0.0000000e+0 0.0000000e+0
vn -1.00000000 0.0000000e+0 0.0000000e+0
vn 0.0000000e+0 0.0000000e+0 -1.00000000
vn 0.0000000e+0 -1.00000000 0.0000000e+0
vn 0.0000000e+0 -1.00000000 0.0000000e+0
vn -1.00000000 0.0000000e+0 0.0000000e+0
vn -1.00000000 0.0000000e+0 0.0000000e+0
vn 0.0000000e+0 0.0000000e+0 1.00000000
vn 0.0000000e+0 0.0000000e+0 1.00000000
vn 0.0000000e+0 1.00000000 0.0000000e+0
vn -1.00000000 0.0000000e+0 0.0000000e+0
vn -1.00000000 0.0000000e+0 0.0000000e+0
vn 0.0000000e+0 0.0000000e+0 1.00000000
vn 0.0000000e+0 0.0000000e+0 1.00000000
vn 0.0000000e+0 1.00000000 0.0000000e+0
vn 0.0000000e+0 1.00000000 0.0000000e+0
vn 0.0000000e+0 1.00000000 0.0000000e+0
vn 0.0000000e+0 1.00000000 0.0000000e+0
vn -1.00000000 0.0000000e+0 0.0000000e+0
vn -1.00000000 0.0000000e+0 0.0000000e+0
vn -1.00000000 0.0000000e+0 0.0000000e+0
vn -1.00000000 0.0000000e+0 0.0000000e+0
vn 0.0000000e+0 0.0000000e+0 -1.00000000
vn 0.0000000e+0 0.0000000e+0 -1.00000000
vn 0.0000000e+0 1.00000000 0.0000000e+0
vn 0.0000000e+0 1.00000000 0.0000000e+0
vn -1.00000000 0.0000000e+0 0.0000000e+0
vn 0.0000000e+0 0.0000000e+0 -1.00000000
vn 0.0000000e+0 0.0000000e+0 -1.00000000
vn 0.0000000e+0 1.00000000 0.0000000e+0
vn 0.0000000e+0 1.00000000 0.0000000e+0
vn -1.00000000 0.0000000e+0 0.0000000e+0
vn -1.00000000 0.0000000e+0 0.0000000e+0
vn 0.0000000e+0 0.0000000e+0 1.00000000
vn 0.0000000e+0 0.0000000e+0 1.00000000
vn 0.0000000e+0 1.00000000 0.0000000e+0
vn -1.00000000 0.0000000e+0 0.0000000e+0
vn 0.0000000e+0 0.0000000e+0 -1.00000000
vn 0.0000000e+0 0.0000000e+0 -1.00000000
vn 0.0000000e+0 1.00000000 0.0000000e+0
vn 0.0000000e+0 1.00000000 0.0000000e+0
vn 1.00000000 0.0000000e+0 0.0000000e+0
vn 0.0000000e+0 0.0000000e+0 1.00000000
vn 0.0000000e+0 0.0000000e+0 1.00000000
vn 0.0000000e+0 -1.00000000 0.0000000e+0
vn 0.0000000e+0 -1.00000000 0.0000000e+0
vn 1.00000000 0.0000000e+0 0.0000000e+0
vn 1.00000000 0.0000000e+0 0.0000000e+0
vn 0.0000000e+0 0.0000000e+0 -1.00000000
vn 0.0000000e+0 0.0000000e+0 -1.00000000
vn 0.0000000e+0 -1.00000000 0.0000000e+0
vn 1.00000000 0.0000000e+0 0.0000000e+0
vn 0.0000000e+0 0.0000000e+0 1.00000000
vn 0.0000000e+0 0.0000000e+0 1.00000000
vn 0.0000000e+0 -1.00000000 0.0000000e+0
vn 0.0000000e+0 -1.00000000 0.0000000e+0
vn 1.00000000 0.0000000e+0 0.0000000e+0
vn 1.00000000 0.0000000e+0 0.0000000e+0
vn 1.00000000 0.0000000e+0 0.0000000e+0
vn 1.00000000 0.0000000e+0 0.0000000e+0
vn 0.0000000e+0 0.0000000e+0 1.00000000
vn 0.0000000e+0 0.0000000e+0 1.00000000
vn 0.0000000e+0 -1.00000000 0.0000000e+0
vn 0.0000000e+0 -1.00000000 0.0000000e+0
vn 1.00000000 0.0000000e+0 0.0000000e+0
vn 1.00000000 0.0000000e+0 0.0000000e+0
vn 0.0000000e+0 0.0000000e+0 -1.00000000
vn 0.0000000e+0 0.0000000e+0 -1.00000000
vn 0.0000000e+0 -1.00000000 0.0000000e+0
vn 0.0000000e+0 -1.00000000 0.0000000e+0
vn 0.0000000e+0 -1.00000000 0.0000000e+0
vn 0.0000000e+0 -1.00000000 0.0000000e+0
vn 1.00000000 0.0000000e+0 0.0000000e+0
vn 1.00000000 0.0000000e+0 0.0000000e+0
vn 0.0000000e+0 0.0000000e+0 -1.00000000
vn 0.0000000e+0 0.0000000e+0 -1.00000000
vn 0.0000000e+0 -1.00000000 0.0000000e+0
vn 1.00000000 0.0000000e+0 0.0000000e+0
vn 1.00000000 0.0000000e+0 0.0000000e+0
vn 0.0000000e+0 0.0000000e+0 1.00000000
vn 0.0000000e+0 1.00000000 0.0000000e+0
vn 0.0000000e+0 1.00000000 0.0000000e+0
vn 1.00000000 0.0000000e+0 0.0000000e+0
vn 1.00000000 0.0000000e+0 0.0000000e+0
vn 0.0000000e+0 0.0000000e+0 1.00000000
vn 0.0000000e+0 0.0000000e+0 1.00000000
vn 0.0000000e+0 0.0000000e+0 1.00000000
vn 0.0000000e+0 0.0000000e+0 1.00000000
vn 0.0000000e+0 1.00000000 0.0000000e+0
vn 0.0000000e+0 1.00000000 0.0000000e+0
vn 1.00000000 0.0000000e+0 0.0000000e+0
vn 1.00000000 0.0000000e+0 0.0000000e+0
vn 1.00000000 0.0000000e+0 0.0000000e+0
vn 1.00000000 0.0000000e+0 0.0000000e+0
vn 0.0000000e+0 0.0000000e+0 -1.00000000
vn 0.0000000e+0 0.0000000e+0 -1.00000000
vn 0.0000000e+0 0.0000000e+0 -1.00000000
vn 0.0000000e+0 0.0000000e+0 -1.00000000
vn 0.0000000e+0 1.00000000 0.0000000e+0
vn 0.0000000e+0 1.00000000 0.0000000e+0
vn 0.0000000e+0 1.00000000 0.0000000e+0
vn 0.0000000e+0 1.00000000 0.0000000e+0
vn 1.00000000 0.0000000e+0 0.0000000e+0
vn 0.0000000e+0 0.0000000e+0 -1.00000000
vn 0.0000000e+0 1.00000000 0.0000000e+0
vn 1.00000000 0.0000000e+0 0.0000000e+0
vn 1.00000000 0.0000000e+0 0.0000000e+0
vn 0.0000000e+0 0.0000000e+0 1.00000000
vn 0.0000000e+0 1.00000000 0.0000000e+0
vn 0.0000000e+0 1.00000000 0.0000000e+0
vn 1.00000000 0.0000000e+0 0.0000000e+0
vn 0.0000000e+0 0.0000000e+0 -1.00000000
vn 0.0000000e+0 1.00000000 0.0000000e+0
vn 1.00000000 0.0000000e+0 0.0000000e+0
vn 1.00000000 0.0000000e+0 0.0000000e+0
vn 1.00000000 0.0000000e+0 0.0000000e+0
vn 0.0000000e+0 0.0000000e+0 1.00000000
vn 0.0000000e+0 0.0000000e+0 1.00000000
vn 0.0000000e+0 -1.00000000 0.0000000e+0
vn 0.0000000e+0 -1.00000000 0.0000000e+0
vn 1.00000000 0.0000000e+0 0.0000000e+0
vn 1.00000000 0.0000000e+0 0.0000000e+0
vn 1.00000000 0.0000000e+0 0.0000000e+0
vn 1.00000000 0.0000000e+0 0.0000000e+0
vn 0.0000000e+0 0.0000000e+0 -1.00000000
vn 0.0000000e+0 0.0000000e+0 -1.00000000
vn 0.0000000e+0 0.0000000e+0 -1.00000000
vn 0.0000000e+0 -1.00000000 0.0000000e+0
vn 1.00000000 0.0000000e+0 0.0000000e+0
vn 1.00000000 0.0000000e+0 0.0000000e+0
vn 1.00000000 0.0000000e+0 0.0000000e+0
vn 0.0000000e+0 0.0000000e+0 1.00000000
vn 0.0000000e+0 -1.00000000 0.0000000e+0
vn 1.00000000 0.0000000e+0 0.0000000e+0
vn 1.00000000 0.0000000e+0 0.0000000e+0
vn 0.0000000e+0 0.0000000e+0 -1.00000000
vn 0.0000000e+0 -1.00000000 0.0000000e+0
vn 0.0000000e+0 -1.00000000 0.0000000e+0
vn 1.00000000 -4.6259293e-17 0.0000000e+0
vn 1.00000000 -4.6259293e-17 0.0000000e+0
vn 1.00000000 -4.6259293e-17 0.0000000e+0
vn 0.0000000e+0 0.0000000e+0 1.00000000
vn 0.0000000e+0 0.0000000e+0 1.00000000
vn 0.0000000e+0 1.00000000 0.0000000e+0
vn 1.00000000 -2.7755576e-17 0.0000000e+0
vn 1.00000000 -2.7755576e-17 0.0000000e+0
vn 1.00000000 -2.7755576e-17 0.0000000e+0
vn 1.00000000 -2.7755576e-17 0.0000000e+0
vn 0.0000000e+0 0.0000000e+0 -1.00000000
vn 0.0000000e+0 0.0000000e+0 -1.00000000
vn 0.0000000e+0 1.00000000 0.0000000e+0
vn 0.0000000e+0 1.00000000 0.0000000e+0
vn 1.00000000 -3.7007434e-17 0.0000000e+0
vn 1.00000000 -3.7007434e-17 0.0000000e+0
vn 1.00000000 -3.7007434e-17 0.0000000e+0
vn 0.0000000e+0 0.0000000e+0 1.00000000
vn 0.0000000e+0 1.00000000 0.0000000e+0
vn 0.0000000e+0 1.00000000 0.0000000e+0
vn 1.00000000 1.3877788e-17 0.0000000e+0
vn 1.00000000 1.3877788e-17 0.0000000e+0
vn 0.0000000e+0 0.0000000e+0 -1.00000000
vn 0.0000000e+0 0.0000000e+0 -1.00000000
vn 0.0000000e+0 1.00000000 0.0000000e+0
vn 1.00000000 0.0000000e+0 0.0000000e+0
vn 0.0000000e+0 0.0000000e+0 1.00000000
vn 0.0000000e+0 0.0000000e+0 1.00000000
vn 0.0000000e+0 -1.00000000 0.0000000e+0
vn 0.0000000e+0 -1.00000000 0.0000000e+0
vn 1.00000000 0.0000000e+0 0.0000000e+0
vn 1.00000000 0.0000000e+0 0.0000000e+0
vn 0.0000000e+0 0.0000000e+0 -1.00000000
vn 0.0000000e+0 0.0000000e+0 -1.00000000
vn 0.0000000e+0 -1.00000000 0.0000000e+0
vn 1.00000000 0.0000000e+0 0.0000000e+0
vn 0.0000000e+0 0.0000000e+0 1.00000000
vn 0.0000000e+0 0.0000000e+0 1.00000000
vn 0.0000000e+0 -1.00000000 0.0000000e+0
vn 0.0000000e+0 -1.00000000 0.0000000e+0
vn 1.00000000 0.0000000e+0 0.0000000e+0
vn 1.00000000 0.0000000e+0 0.0000000e+0
vn 1.00000000 0.0000000e+0 0.0000000e+0
vn 1.00000000 0.0000000e+0 0.0000000e+0
vn 0.0000000e+0 0.0000000e+0 1.00000000
vn 0.0000000e+0 -1.00000000 0.0000000e+0
vn 1.00000000 -9.2518585e-16 0.0000000e+0
vn 1.00000000 -9.2518585e-16 0.0000000e+0
vn 1.00000000 -9.2518585e-16 0.0000000e+0
vn 0.0000000e+0 0.0000000e+0 -1.00000000
vn 0.0000000e+0 -1.00000000 0.0000000e+0
vn 0.0000000e+0 -1.00000000 0.0000000e+0
vn 1.00000000 -6.9388939e-16 0.0000000e+0
vn 1.00000000 -6.9388939e-16 0.0000000e+0
vn 1.00000000 -6.9388939e-16 0.0000000e+0
vn 1.00000000 -6.9388939e-16 0.0000000e+0
vn 0.0000000e+0 0.0000000e+0 -1.00000000
vn 0.0000000e+0 0.0000000e+0 -1.00000000
vn 0.0000000e+0 -1.00000000 0.0000000e+0
vn 1.00000000 -6.9388939e-16 0.0000000e+0
vn 1.00000000 -6.9388939e-16 0.0000000e+0
vn 1.00000000 -6.9388939e-16 0.0000000e+0
vn 1.00000000 -6.9388939e-16 0.0000000e+0
vn 0.0000000e+0 0.0000000e+0 1.00000000
vn 0.0000000e+0 1.00000000 0.0000000e+0
vn 0.0000000e+0 1.00000000 0.0000000e+0
vn 1.00000000 0.0000000e+0 0.0000000e+0
vn 1.00000000 0.0000000e+0 0.0000000e+0
vn 1.00000000 0.0000000e+0 0.0000000e+0
vn 0.0000000e+0 0.0000000e+0 1.00000000
vn 0.0000000e+0 0.0000000e+0 1.00000000
vn 0.0000000e+0 1.00000000 0.0000000e+0
vn 1.00000000 0.0000000e+0 0.0000000e+0
vn 1.00000000 0.0000000e+0 0.0000000e+0
vn 1.00000000 0.0000000e+0 0.0000000e+0
vn 1.00000000 0.0000000e+0 0.0000000e+0
vn 0.0000000e+0 0.0000000e+0 -1.00000000
vn 0.0000000e+0 0.0000000e+0 -1.00000000
vn 0.0000000e+0 1.00000000 0.0000000e+0
vn 0.0000000e+0 1.00000000 0.0000000e+0
vn 1.00000000 0.0000000e+0 0.0000000e+0
vn 0.0000000e+0 0.0000000e+0 -1.00000000
vn 0.0000000e+0 1.00000000 0.0000000e+0
vn 1.00000000 0.0000000e+0 0.0000000e+0
vn 1.00000000 0.0000000e+0 0.0000000e+0
vn 0.0000000e+0 0.0000000e+0 1.00000000
vn 0.0000000e+0 1.00000000 0.0000000e+0
vn 0.0000000e+0 1.00000000 0.0000000e+0
vn 1.00000000 0.0000000e+0 0.0000000e+0
vn 0.0000000e+0 0.0000000e+0 -1.00000000
vn 0.0000000e+0 1.00000000 0.0000000e+0
g door_palette
usemtl palette
s 1
f 1/2/6 33/2/196 4/2/20
f 5/2/27 34/2/202 2/2/10
f 5/2/28 37/2/220 34/2/203
f 8/2/47 40/2/238 11/2/63
f 12/2/67 41/2/248 9/2/54
f 12/2/68 44/2/265 41/2/249
f 13/1/74 45/1/270 19/1/112
f 14/1/82 67/1/3 46/1/278
f 15/2/91 37/2/223 16/2/96
f 17/2/101 41/2/252 40/2/243
f 18/2/108 41/2/253 17/2/102
f 20/1/117 65/1/1 14/1/80
f 20/1/118 66/1/2 65/1/1
f 20/1/119 68/1/4 66/1/2
f 21/2/123 24/2/134 22/2/126
f 24/2/135 25/2/146 22/2/127
f 24/2/138 49/2/295 47/2/285
f 24/2/142 55/2/330 23/2/133
f 24/2/143 56/2/337 55/2/331
f 25/2/149 50/2/303 29/2/176
f 27/2/163 59/2/356 28/2/168
f 28/2/166 49/2/296 24/2/139
f 30/2/181 58/2/348 26/2/156
f 30/2/182 62/2/373 58/2/349
f 32/2/191 61/2/368 29/2/177
f 32/2/192 64/2/381 61/2/369
f 33/2/197 36/2/214 4/2/21
f 36/2/217 37/2/222 15/2/90
f 36/2/212 39/2/231 35/2/205
f 36/2/213 40/2/236 39/2/232
f 38/2/226 41/2/244 37/2/219
f 38/2/227 42/2/256 41/2/245
f 40/2/239 43/2/261 11/2/64
f 45/1/271 51/1/309 19/1/113
f 46/1/280 68/1/4 52/1/315
f 48/2/289 50/2/302 25/2/148
f 52/1/314 68/1/4 20/1/120
f 59/2/357 60/2/363 28/2/169
f 65/1/1 67/1/3 14/1/81
f 66/2/2 67/2/3 65/2/1
f 66/2/2 68/2/4 67/2/3
f 67/1/3 68/1/4 46/1/279
s 2
f 2/2/11 33/2/198 1/2/7
f 2/2/12 34/2/204 33/2/199
f 4/2/22 35/2/208 3/2/15
f 4/2/23 36/2/216 35/2/209
f 7/2/43 39/2/234 8/2/48
f 10/2/57 38/2/228 6/2/34
f 10/2/58 42/2/257 38/2/229
f 14/1/83 45/1/272 13/1/75
f 14/1/84 46/1/281 45/1/273
f 15/2/88 40/2/240 36/2/215
f 16/2/95 41/2/251 18/2/107
f 17/2/100 40/2/241 15/2/89
f 19/1/114 51/1/310 20/1/121
f 21/2/124 53/2/318 24/2/140
f 23/2/131 27/2/159 24/2/136
f 24/2/145 48/2/291 25/2/152
f 25/2/150 54/2/324 22/2/128
f 25/2/151 57/2/341 54/2/325
f 27/2/160 28/2/164 24/2/137
f 28/2/170 50/2/304 49/2/297
f 28/2/167 60/2/361 31/2/187
f 29/2/178 50/2/305 28/2/171
f 29/2/179 61/2/370 30/2/183
f 37/2/221 41/2/250 16/2/94
f 39/2/235 40/2/242 8/2/49
f 41/2/246 43/2/259 40/2/237
f 41/2/247 44/2/264 43/2/260
f 47/2/286 48/2/290 24/2/144
f 51/1/311 52/1/316 20/1/122
f 53/2/319 56/2/336 24/2/141
f 60/2/362 63/2/377 31/2/188
f 61/2/371 62/2/374 30/2/184
s 3
f 3/2/14 35/2/206 7/2/41
f 6/2/35 37/2/224 5/2/29
f 6/2/36 38/2/230 37/2/225
f 9/2/55 41/2/254 10/2/59
f 11/2/65 43/2/262 12/2/69
f 13/1/71 15/1/85 14/1/76
f 13/1/72 17/1/97 15/1/87
f 13/1/73 19/1/109 17/1/98
f 15/1/86 16/1/92 14/1/77
f 16/1/93 18/1/103 14/1/78
f 17/1/99 19/1/110 18/1/104
f 18/1/105 20/1/115 14/1/79
f 19/1/111 20/1/116 18/1/106
f 22/2/129 53/2/320 21/2/125
f 22/2/130 54/2/326 53/2/321
f 23/2/132 55/2/328 27/2/161
f 25/2/147 29/2/172 26/2/154
f 28/2/165 31/2/185 29/2/174
f 29/2/173 30/2/180 26/2/155
f 31/2/186 32/2/190 29/2/175
f 34/2/200 36/2/210 33/2/195
f 34/2/201 37/2/218 36/2/211
f 35/2/207 39/2/233 7/2/42
f 41/2/255 42/2/258 10/2/60
f 43/2/263 44/2/266 12/2/70
f 46/1/274 47/1/282 45/1/267
f 46/1/275 48/1/287 47/1/283
f 46/1/276 50/1/298 48/1/288
f 46/1/277 52/1/312 50/1/300
f 47/1/284 49/1/292 45/1/268
f 49/1/293 51/1/306 45/1/269
f 50/1/299 51/1/307 49/1/294
f 50/1/301 52/1/313 51/1/308
f 55/2/329 59/2/355 27/2/162
s 4
f 1/2/5 4/2/16 2/2/8
f 3/2/13 7/2/37 4/2/18
f 4/2/17 5/2/24 2/2/9
f 4/2/19 7/2/39 5/2/26
f 5/2/25 7/2/38 6/2/30
f 7/2/40 8/2/44 6/2/31
f 8/2/45 9/2/50 6/2/32
f 8/2/46 11/2/61 9/2/52
f 9/2/51 10/2/56 6/2/33
f 11/2/62 12/2/66 9/2/53
f 26/2/157 57/2/342 25/2/153
f 26/2/158 58/2/350 57/2/343
f 31/2/189 63/2/378 32/2/193
f 63/2/379 64/2/382 32/2/194
s 5
f 54/2/322 56/2/332 53/2/317
f 54/2/323 57/2/338 56/2/333
f 56/2/334 59/2/351 55/2/327
f 57/2/340 59/2/353 56/2/335
f 58/2/344 59/2/352 57/2/339
f 58/2/345 60/2/358 59/2/354
f 58/2/346 61/2/364 60/2/359
f 58/2/347 62/2/372 61/2/365
f 61/2/366 63/2/375 60/2/360
f 61/2/367 64/2/380 63/2/376
