# Exported from Wings 3D 2.2.3
mtllib knife_with_blood.mtl
o knife_with_blood
#36 vertices, 68 faces
v -0.20000000 0.60000000 0.0000000e+0
v -0.20000000 0.60000000 -0.10000000
v -0.20000000 0.80000000 0.0000000e+0
v -0.20000000 0.80000000 -0.10000000
v -0.20000000 1.40000000 0.0000000e+0
v -0.20000000 1.40000000 -0.10000000
v -0.10000000 0.0000000e+0 0.0000000e+0
v -0.10000000 0.0000000e+0 -0.10000000
v -0.10000000 0.50000000 0.0000000e+0
v -0.10000000 0.50000000 -0.10000000
v -0.10000000 0.60000000 0.0000000e+0
v -0.10000000 0.60000000 -0.10000000
v -0.10000000 1.40000000 0.0000000e+0
v -0.10000000 1.40000000 -0.10000000
v -0.10000000 1.60000000 0.0000000e+0
v -0.10000000 1.60000000 -0.10000000
v 0.0000000e+0 1.60000000 0.0000000e+0
v 0.0000000e+0 1.60000000 -0.10000000
v 0.0000000e+0 1.70000000 0.0000000e+0
v 0.0000000e+0 1.70000000 -0.10000000
v 0.10000000 0.0000000e+0 0.0000000e+0
v 0.10000000 0.0000000e+0 -0.10000000
v 0.10000000 0.50000000 0.0000000e+0
v 0.10000000 0.50000000 -0.10000000
v 0.10000000 1.50000000 0.0000000e+0
v 0.10000000 1.50000000 -0.10000000
v 0.10000000 1.70000000 0.0000000e+0
v 0.10000000 1.70000000 -0.10000000
v -0.10000000 0.80000000 0.0000000e+0
v -0.10000000 1.30000000 0.0000000e+0
v 0.0000000e+0 1.30000000 0.0000000e+0
v 0.0000000e+0 1.50000000 0.0000000e+0
v -0.10000000 0.80000000 -0.10000000
v -0.10000000 1.30000000 -0.10000000
v 0.0000000e+0 1.30000000 -0.10000000
v 0.0000000e+0 1.50000000 -0.10000000
vt 0.84570300 0.50000000
vt 0.97460900 0.50000000
vt 0.99414100 0.50000000
vn 0.0000000e+0 0.0000000e+0 1.00000000
vn 0.0000000e+0 0.0000000e+0 1.00000000
vn 0.0000000e+0 0.0000000e+0 1.00000000
vn 0.0000000e+0 0.0000000e+0 1.00000000
vn 1.3877788e-16 0.0000000e+0 -1.00000000
vn 0.0000000e+0 0.0000000e+0 -1.00000000
vn -2.6020852e-16 0.0000000e+0 -1.00000000
vn 0.0000000e+0 0.0000000e+0 -1.00000000
vn -1.00000000 0.0000000e+0 0.0000000e+0
vn 0.0000000e+0 0.0000000e+0 1.00000000
vn 0.0000000e+0 -1.00000000 0.0000000e+0
vn -1.00000000 0.0000000e+0 0.0000000e+0
vn -1.00000000 0.0000000e+0 0.0000000e+0
vn 0.0000000e+0 0.0000000e+0 -1.00000000
vn 0.0000000e+0 -1.00000000 0.0000000e+0
vn 0.0000000e+0 -1.00000000 0.0000000e+0
vn -1.00000000 0.0000000e+0 0.0000000e+0
vn -1.00000000 0.0000000e+0 0.0000000e+0
vn -1.00000000 0.0000000e+0 0.0000000e+0
vn 0.0000000e+0 0.0000000e+0 1.00000000
vn 0.0000000e+0 0.0000000e+0 1.00000000
vn 0.0000000e+0 0.0000000e+0 1.00000000
vn -1.00000000 0.0000000e+0 0.0000000e+0
vn -1.00000000 0.0000000e+0 0.0000000e+0
vn -1.00000000 0.0000000e+0 0.0000000e+0
vn 0.0000000e+0 0.0000000e+0 -1.00000000
vn 0.0000000e+0 0.0000000e+0 -1.00000000
vn 0.0000000e+0 0.0000000e+0 -1.00000000
vn -1.00000000 0.0000000e+0 0.0000000e+0
vn -1.00000000 0.0000000e+0 0.0000000e+0
vn 0.0000000e+0 0.0000000e+0 1.00000000
vn 0.0000000e+0 0.0000000e+0 1.00000000
vn 0.0000000e+0 0.0000000e+0 1.00000000
vn 0.0000000e+0 1.00000000 0.0000000e+0
vn -1.00000000 0.0000000e+0 0.0000000e+0
vn 0.0000000e+0 0.0000000e+0 -1.00000000
vn 0.0000000e+0 0.0000000e+0 -1.00000000
vn 0.0000000e+0 0.0000000e+0 -1.00000000
vn 0.0000000e+0 1.00000000 0.0000000e+0
vn 0.0000000e+0 1.00000000 0.0000000e+0
vn -1.00000000 0.0000000e+0 0.0000000e+0
vn 0.0000000e+0 0.0000000e+0 1.00000000
vn 0.0000000e+0 -1.00000000 0.0000000e+0
vn -1.00000000 0.0000000e+0 0.0000000e+0
vn -1.00000000 0.0000000e+0 0.0000000e+0
vn 0.0000000e+0 0.0000000e+0 -1.00000000
vn 0.0000000e+0 -1.00000000 0.0000000e+0
vn 0.0000000e+0 -1.00000000 0.0000000e+0
vn -1.00000000 0.0000000e+0 0.0000000e+0
vn -1.00000000 0.0000000e+0 0.0000000e+0
vn -1.00000000 0.0000000e+0 0.0000000e+0
vn 0.0000000e+0 0.0000000e+0 1.00000000
vn 0.0000000e+0 0.0000000e+0 1.00000000
vn 0.0000000e+0 0.0000000e+0 1.00000000
vn 0.0000000e+0 0.0000000e+0 1.00000000
vn -1.00000000 0.0000000e+0 0.0000000e+0
vn -1.00000000 0.0000000e+0 0.0000000e+0
vn -1.00000000 0.0000000e+0 0.0000000e+0
vn -6.9388939e-16 0.0000000e+0 -1.00000000
vn -6.9388939e-16 0.0000000e+0 -1.00000000
vn -6.9388939e-16 0.0000000e+0 -1.00000000
vn -6.9388939e-16 0.0000000e+0 -1.00000000
vn -1.00000000 0.0000000e+0 0.0000000e+0
vn -1.00000000 0.0000000e+0 0.0000000e+0
vn 0.0000000e+0 0.0000000e+0 1.00000000
vn 0.0000000e+0 0.0000000e+0 1.00000000
vn 0.0000000e+0 0.0000000e+0 1.00000000
vn 0.0000000e+0 0.0000000e+0 1.00000000
vn 0.0000000e+0 -1.00000000 0.0000000e+0
vn 0.0000000e+0 -1.00000000 0.0000000e+0
vn -1.00000000 0.0000000e+0 0.0000000e+0
vn -5.2041704e-16 0.0000000e+0 -1.00000000
vn -5.2041704e-16 0.0000000e+0 -1.00000000
vn -5.2041704e-16 0.0000000e+0 -1.00000000
vn -5.2041704e-16 0.0000000e+0 -1.00000000
vn 0.0000000e+0 -1.00000000 0.0000000e+0
vn -1.00000000 0.0000000e+0 0.0000000e+0
vn 0.0000000e+0 0.0000000e+0 1.00000000
vn 0.0000000e+0 0.0000000e+0 1.00000000
vn 0.0000000e+0 0.0000000e+0 1.00000000
vn 0.0000000e+0 1.00000000 0.0000000e+0
vn 0.0000000e+0 1.00000000 0.0000000e+0
vn -1.00000000 0.0000000e+0 0.0000000e+0
vn -1.00000000 0.0000000e+0 0.0000000e+0
vn 0.0000000e+0 0.0000000e+0 -1.00000000
vn 0.0000000e+0 0.0000000e+0 -1.00000000
vn 0.0000000e+0 0.0000000e+0 -1.00000000
vn 0.0000000e+0 1.00000000 0.0000000e+0
vn -1.00000000 0.0000000e+0 0.0000000e+0
vn -1.00000000 0.0000000e+0 0.0000000e+0
vn 0.0000000e+0 0.0000000e+0 1.00000000
vn 0.0000000e+0 0.0000000e+0 1.00000000
vn 0.0000000e+0 0.0000000e+0 1.00000000
vn 0.0000000e+0 1.00000000 0.0000000e+0
vn -1.00000000 0.0000000e+0 0.0000000e+0
vn 0.0000000e+0 0.0000000e+0 -1.00000000
vn 0.0000000e+0 0.0000000e+0 -1.00000000
vn 0.0000000e+0 0.0000000e+0 -1.00000000
vn 0.0000000e+0 1.00000000 0.0000000e+0
vn 0.0000000e+0 1.00000000 0.0000000e+0
vn -1.00000000 0.0000000e+0 0.0000000e+0
vn 0.0000000e+0 0.0000000e+0 1.00000000
vn 0.0000000e+0 0.0000000e+0 1.00000000
vn 0.0000000e+0 0.0000000e+0 1.00000000
vn 0.0000000e+0 1.00000000 0.0000000e+0
vn 0.0000000e+0 1.00000000 0.0000000e+0
vn -1.00000000 0.0000000e+0 0.0000000e+0
vn -1.00000000 0.0000000e+0 0.0000000e+0
vn 0.0000000e+0 0.0000000e+0 -1.00000000
vn 0.0000000e+0 0.0000000e+0 -1.00000000
vn 0.0000000e+0 0.0000000e+0 -1.00000000
vn 0.0000000e+0 1.00000000 0.0000000e+0
vn -1.00000000 0.0000000e+0 0.0000000e+0
vn -1.00000000 0.0000000e+0 0.0000000e+0
vn 0.0000000e+0 0.0000000e+0 1.00000000
vn 0.0000000e+0 0.0000000e+0 1.00000000
vn 0.0000000e+0 1.00000000 0.0000000e+0
vn -1.00000000 0.0000000e+0 0.0000000e+0
vn 0.0000000e+0 0.0000000e+0 -1.00000000
vn 0.0000000e+0 0.0000000e+0 -1.00000000
vn 0.0000000e+0 1.00000000 0.0000000e+0
vn 0.0000000e+0 1.00000000 0.0000000e+0
vn 1.00000000 0.0000000e+0 0.0000000e+0
vn 0.0000000e+0 0.0000000e+0 1.00000000
vn 0.0000000e+0 0.0000000e+0 1.00000000
vn 0.0000000e+0 -1.00000000 0.0000000e+0
vn 0.0000000e+0 -1.00000000 0.0000000e+0
vn 1.00000000 0.0000000e+0 0.0000000e+0
vn 1.00000000 0.0000000e+0 0.0000000e+0
vn 0.0000000e+0 0.0000000e+0 -1.00000000
vn 0.0000000e+0 0.0000000e+0 -1.00000000
vn 0.0000000e+0 -1.00000000 0.0000000e+0
vn 1.00000000 0.0000000e+0 0.0000000e+0
vn 1.00000000 0.0000000e+0 0.0000000e+0
vn 1.00000000 0.0000000e+0 0.0000000e+0
vn 0.0000000e+0 0.0000000e+0 1.00000000
vn 0.0000000e+0 0.0000000e+0 1.00000000
vn 0.0000000e+0 0.0000000e+0 1.00000000
vn 0.0000000e+0 0.0000000e+0 1.00000000
vn 1.00000000 0.0000000e+0 0.0000000e+0
vn 1.00000000 0.0000000e+0 0.0000000e+0
vn 1.00000000 0.0000000e+0 0.0000000e+0
vn 0.0000000e+0 0.0000000e+0 -1.00000000
vn 0.0000000e+0 0.0000000e+0 -1.00000000
vn 0.0000000e+0 0.0000000e+0 -1.00000000
vn 0.0000000e+0 0.0000000e+0 -1.00000000
vn 1.00000000 0.0000000e+0 0.0000000e+0
vn 1.00000000 0.0000000e+0 0.0000000e+0
vn 1.00000000 0.0000000e+0 0.0000000e+0
vn 0.0000000e+0 0.0000000e+0 1.00000000
vn 0.0000000e+0 0.0000000e+0 1.00000000
vn 0.0000000e+0 0.0000000e+0 1.00000000
vn 0.0000000e+0 0.0000000e+0 1.00000000
vn 1.00000000 0.0000000e+0 0.0000000e+0
vn 1.00000000 0.0000000e+0 0.0000000e+0
vn 1.00000000 0.0000000e+0 0.0000000e+0
vn 0.0000000e+0 0.0000000e+0 -1.00000000
vn 0.0000000e+0 0.0000000e+0 -1.00000000
vn 0.0000000e+0 0.0000000e+0 -1.00000000
vn 0.0000000e+0 0.0000000e+0 -1.00000000
vn 1.00000000 0.0000000e+0 0.0000000e+0
vn 1.00000000 0.0000000e+0 0.0000000e+0
vn 0.0000000e+0 0.0000000e+0 1.00000000
vn 0.0000000e+0 1.00000000 0.0000000e+0
vn 0.0000000e+0 1.00000000 0.0000000e+0
vn 1.00000000 0.0000000e+0 0.0000000e+0
vn 0.0000000e+0 0.0000000e+0 -1.00000000
vn 0.0000000e+0 1.00000000 0.0000000e+0
g knife_with_blood_palette
usemtl palette
s 1
f 1/2/9 3/2/17 2/2/12
f 3/2/18 4/2/23 2/2/13
f 3/1/19 5/1/29 4/1/24
f 5/1/30 6/1/35 4/1/25
f 7/3/41 9/3/49 8/3/44
f 9/3/50 10/3/56 8/3/45
f 9/2/51 11/2/63 10/2/57
f 11/2/64 12/2/71 10/2/58
f 15/1/94 17/1/105 16/1/99
f 17/1/106 18/1/112 16/1/100
f 19/1/117 27/1/164 20/1/121
f 27/1/165 28/1/168 20/1/122
s 2
f 2/2/15 11/2/69 1/2/11
f 2/2/16 12/2/76 11/2/70
f 5/1/34 13/1/81 6/1/39
f 8/3/47 21/3/126 7/3/43
f 8/3/48 22/3/132 21/3/127
f 13/1/82 14/1/88 6/1/40
f 17/1/101 19/1/113 18/1/107
f 19/1/114 20/1/118 18/1/108
s 3
f 1/2/10 11/2/65 3/2/20
f 3/1/21 29/1/1 5/1/31
f 4/2/26 12/2/72 2/2/14
f 4/2/28 33/2/5 12/2/73
f 5/1/33 30/1/2 13/1/78
f 6/1/36 33/1/5 4/1/27
f 6/1/37 34/1/6 33/1/5
f 7/3/42 21/3/124 9/3/53
f 9/2/52 31/2/3 11/2/67
f 10/3/60 22/3/130 8/3/46
f 10/3/62 24/3/144 22/3/131
f 10/2/61 35/2/7 24/2/143
f 11/2/66 29/2/1 3/2/22
f 11/2/68 31/2/3 29/2/1
f 12/2/74 35/2/7 10/2/59
f 13/1/79 31/1/3 15/1/91
f 14/1/85 34/1/6 6/1/38
f 14/1/87 35/1/7 34/1/6
f 15/1/93 32/1/4 17/1/102
f 16/1/96 35/1/7 14/1/86
f 16/1/97 36/1/8 35/1/7
f 17/1/103 25/1/150 19/1/115
f 17/1/104 32/1/4 25/1/152
f 18/1/109 36/1/8 16/1/98
f 20/1/119 26/1/157 18/1/110
f 20/1/120 28/1/167 26/1/160
f 21/3/125 23/3/137 9/3/55
f 23/2/136 31/2/3 9/2/54
f 23/2/138 32/2/4 31/2/3
f 24/2/146 36/2/8 26/2/158
f 25/1/153 27/1/163 19/1/116
f 25/2/151 32/2/4 23/2/139
f 26/1/159 36/1/8 18/1/111
f 29/1/1 30/1/2 5/1/32
f 29/2/1 31/2/3 30/2/2
f 30/1/2 31/1/3 13/1/80
f 31/1/3 32/1/4 15/1/92
f 33/2/5 35/2/7 12/2/75
f 34/2/6 35/2/7 33/2/5
f 35/2/7 36/2/8 24/2/145
s 4
f 13/1/77 15/1/89 14/1/83
f 15/1/90 16/1/95 14/1/84
f 22/3/128 23/3/133 21/3/123
f 22/3/129 24/3/140 23/3/134
f 24/2/141 25/2/147 23/2/135
f 24/2/142 26/2/154 25/2/148
f 26/1/155 27/1/161 25/1/149
f 26/1/156 28/1/166 27/1/162
